# xmcd
#
# Track frame offsets: 
#        150
#        17181
#        33066
#        47072
#        65075
#        82984
#        105294
#        124061
#        144323
#        160165
#        174463
#        192508
#
# Disc length: 2826 seconds
#
# Revision: 0
# Processed by: cddbd v1.5.2PL0 Copyright (c) Steve Scherf et al.
# Submitted via: ExactAudioCopy v1.3
#
DISCID=960b080c
DTITLE=刘晓 - 绝唱（六）
DYEAR=2018
DGENRE=Pop
TTITLE0=江山无限
TTITLE1=说唱脸谱
TTITLE2=北京的桥
TTITLE3=未了情
TTITLE4=粉墨人生
TTITLE5=故乡是北京
TTITLE6=中华民谣
TTITLE7=前门情思大碗茶
TTITLE8=北京一夜
TTITLE9=故事就是故事
TTITLE10=冰糖葫芦
TTITLE11=北京欢迎你
EXTD=
EXTT0=
EXTT1=
EXTT2=
EXTT3=
EXTT4=
EXTT5=
EXTT6=
EXTT7=
EXTT8=
EXTT9=
EXTT10=
EXTT11=
PLAYORDER=
